<?xml version="1.0" encoding="utf-8"?>
<!-- Generator: Adobe Illustrator 15.1.0, SVG Export Plug-In . SVG Version: 6.00 Build 0)  -->
<!DOCTYPE svg PUBLIC "-//W3C//DTD SVG 1.1//EN" "http://www.w3.org/Graphics/SVG/1.1/DTD/svg11.dtd">
<svg version="1.1" xmlns="http://www.w3.org/2000/svg" xmlns:xlink="http://www.w3.org/1999/xlink" x="0px" y="0px" width="525px"
     height="562.5px" viewBox="0 0 525 562.5" enable-background="new 0 0 525 562.5" xml:space="preserve">
  <style type="text/css">
	.st0{fill:#FFFFFF;}
	.st1{fill:#81C98F;}
</style>
<g id="Layer_1">
	<g id="_x36__1_">
		<g>
			<path class="st0" d="M450,337.5v-150C450,84.375,365.625,0,262.5,0S75,84.375,75,187.5v150l-75,150h170.625
				c9.375,43.125,46.875,75,91.875,75s82.5-31.875,91.875-75H525L450,337.5z M262.5,525c-24.375,0-45-15-52.5-37.5h105
				C307.5,510,286.875,525,262.5,525z M56.25,450l56.25-112.5v-150c0-82.5,67.5-150,150-150s150,67.5,150,150v150L468.75,450H56.25z
				"/>
		</g>
	</g>
</g>
<g id="Layer_2">
	<path class="st1" d="M56.25,450l56.25-112.5v-150c0-82.5,67.5-150,150-150s150,67.5,150,150v150L468.75,450H56.25z"/>
</g>
</svg>
