<?xml version="1.0" encoding="utf-8"?>
<!-- Generator: Adobe Illustrator 15.1.0, SVG Export Plug-In . SVG Version: 6.00 Build 0)  -->
<!DOCTYPE svg PUBLIC "-//W3C//DTD SVG 1.1//EN" "http://www.w3.org/Graphics/SVG/1.1/DTD/svg11.dtd">
<svg version="1.1" id="Layer_1" xmlns="http://www.w3.org/2000/svg" xmlns:xlink="http://www.w3.org/1999/xlink" x="0px" y="0px"
	 width="1000px" height="1000px" viewBox="-471.654 -471.654 1000 1000" enable-background="new -471.654 -471.654 1000 1000"
	 xml:space="preserve">
<path fill="#7377B9" d="M528.346,28.346c0-276.146-223.854-500-500-500s-500,223.854-500,500s223.854,500,500,500
	S528.346,304.492,528.346,28.346z"/>
<path fill="#FFFFFF" d="M154.206-64.547H69.06v-55.836c0-20.979,13.899-25.863,23.687-25.863c9.768,0,60.089,0,60.089,0v-92.193
	l-82.753-0.315c-91.856,0-112.76,68.756-112.76,112.759v61.448h-53.117v94.999h53.117c0,121.906,0,268.805,0,268.805H69.06
	c0,0,0-148.345,0-268.805h75.401L154.206-64.547z"/>
</svg>
