<?xml version="1.0" encoding="utf-8"?>
<!-- Generator: Adobe Illustrator 15.1.0, SVG Export Plug-In . SVG Version: 6.00 Build 0)  -->
<!DOCTYPE svg PUBLIC "-//W3C//DTD SVG 1.1//EN" "http://www.w3.org/Graphics/SVG/1.1/DTD/svg11.dtd">
<svg version="1.1" xmlns="http://www.w3.org/2000/svg" xmlns:xlink="http://www.w3.org/1999/xlink" x="0px" y="0px"
	 width="288.705px" height="223.46px" viewBox="0 0 288.705 223.46" enable-background="new 0 0 288.705 223.46"
	 xml:space="preserve">
<g id="Layer_1" display="none">
	<g display="inline">
		<path fill="#FFFFFF" d="M234.45,136.08c-5.504,5.836-13.745,9.354-21.509,9.354c-0.001,0-0.003,0-0.004,0
			c-4.272,0-8.187-0.966-11.66-3.019c-0.233-0.139-0.472-0.267-0.701-0.415l-8.496-5.43l-2.272,3.619l-3.116,4.964
			c-3.48,5.527-8.312,9.631-12.696,12.264c-3.798,2.281-7.263,3.462-9.208,3.462l-3.053-0.129l-0.004,0.002l-2.694,1.595
			c-7.074,4.325-12.362,6.343-16.642,6.343c-3.631,0-8.979-1.345-18.194-11.838l-6.188-7.047l-7.429,5.725
			c-3.046,2.347-8.413,3.693-14.724,3.693c-2.709,0-5.598-0.26-8.557-0.771c-3.825-0.662-7.767-1.757-11.606-3.306
			c-5.098-2.056-10.004-4.908-14.194-8.601c-3.161-2.786-5.912-6.048-8.026-9.807c-2.488-4.424-4.1-9.529-4.449-15.355l-0.454-7.572
			l-7.415-1.604c-9.391-2.03-15.88-8.811-17.357-18.139c-1.172-7.4,1.165-17.397,11.239-23.261l5.845-3.402l-0.981-6.692
			c-0.96-6.545,0.578-12.207,4.569-16.826c4.499-5.207,11.905-8.571,18.869-8.571c1.302,0,2.551,0.121,3.711,0.359l6.981,1.433
			l3.633-6.131c5.524-9.323,13.489-14.67,21.853-14.67c3.96,0,7.84,1.168,11.532,3.472l6.963,4.346l5.62-5.982
			C129.957,11.413,136.806,10,141.438,10c7.624,0,12.894,3.542,13.807,5.018l4.433,7.171l7.817-3.157
			c4.777-1.929,9.116-2.907,12.894-2.907c5.146,0,12.754,1.55,19.384,14.948l3.566,7.208l7.805-1.936
			c2.875-0.714,5.616-1.075,8.146-1.075c6.673,0,12.139,2.535,16.247,7.535c4.896,5.959,6.067,13.15,5.717,15.07l-0.119,0.414
			c-15.02-2.754-28.583,0.771-33.43,13.795c-10.551,28.351,4.096,38.132,26.574,44.053c2.186,0.575,4.327,1.028,6.423,1.377
			l0.144,2.445C241.274,127.312,237.604,132.735,234.45,136.08z"/>
		<path fill="none" d="M240.701,117.514c-2.096-0.349-4.237-0.802-6.423-1.377c-22.479-5.921-37.125-15.702-26.574-44.053
			c4.847-13.024,18.41-16.549,33.43-13.795l0.119-0.414c0.351-1.92-0.82-9.111-5.717-15.07c-4.108-5-9.574-7.535-16.247-7.535
			c-2.529,0-5.271,0.361-8.146,1.075l-7.805,1.936l-3.566-7.208c-6.63-13.398-14.237-14.948-19.384-14.948
			c-3.777,0-8.116,0.978-12.894,2.907l-7.817,3.157l-4.433-7.171C154.332,13.542,149.062,10,141.438,10
			c-4.633,0-11.482,1.413-17.805,8.145l-5.62,5.982l-6.963-4.346c-3.692-2.304-7.571-3.472-11.532-3.472
			c-8.363,0-16.328,5.347-21.853,14.67l-3.633,6.131l-6.981-1.433c-1.16-0.238-2.409-0.359-3.711-0.359
			c-6.963,0-14.37,3.364-18.869,8.571c-3.991,4.62-5.529,10.281-4.569,16.826l0.981,6.692L35.04,70.81
			C24.965,76.673,22.628,86.67,23.801,94.07c1.478,9.328,7.966,16.108,17.357,18.139l7.415,1.604l0.454,7.572
			c0.349,5.826,1.96,10.932,4.449,15.355c2.114,3.759,4.865,7.021,8.026,9.807c4.19,3.692,9.096,6.545,14.194,8.601
			c3.839,1.549,7.781,2.644,11.606,3.306c2.958,0.511,5.847,0.771,8.557,0.771c6.311,0,11.677-1.347,14.724-3.693l7.429-5.725
			l6.188,7.047c9.215,10.493,14.563,11.838,18.194,11.838c4.279,0,9.567-2.018,16.642-6.343l2.694-1.595l0.004-0.002l3.053,0.129
			c1.945,0,5.41-1.181,9.208-3.462c4.385-2.633,9.216-6.736,12.696-12.264l3.116-4.964l2.272-3.619l8.496,5.43
			c0.229,0.148,0.468,0.276,0.701,0.415c3.474,2.053,7.388,3.019,11.66,3.019c0.001,0,0.003,0,0.004,0
			c7.764,0,16.005-3.519,21.509-9.354c3.154-3.345,6.824-8.768,6.395-16.121L240.701,117.514z M198.005,71.103
			c-4.945,6.559-11.115,10.244-13.783,8.232c-2.667-2.011-0.821-8.958,4.124-15.516c4.945-6.558,11.115-10.244,13.783-8.233
			C204.796,57.598,202.95,64.545,198.005,71.103z"/>
		<path d="M259.123,64.271c-2.547-1.22-5.135-2.293-7.728-3.21c-0.175-0.16-0.336-0.323-0.515-0.482
			c2.787-9.661-8.243-42.35-42.146-33.939c-9.287-18.77-24.047-25.333-44.984-16.879c-5.553-8.982-29.832-17.172-47.406,1.538
			C100.309,1.29,80.586,6.434,69.063,25.882C51.386,22.253,26.227,36.374,30.01,62.167c-9.709,5.651-14.97,14.611-16.207,23.93
			c-2.669,1.403-5.746,4.127-8.458,7.723c-4.945,6.559-6.791,13.505-4.124,15.516c2.668,2.012,8.838-1.674,13.783-8.232
			c0.069-0.092,0.131-0.184,0.199-0.275c3.308,10.006,11.443,18.477,23.841,21.156c0.643,10.726,4.648,19.609,10.588,26.668
			l-24.123,74.783l11.187,0.01l21.524-66.726c5.713,4.279,12.229,7.452,18.878,9.532l7.225,57.209l11.186-0.025l-6.905-54.676
			c11.217,1.396,21.69-0.382,28.082-5.308c13.929,15.86,24.909,18.811,40.527,11.305l-15.703,48.679l11.187,0.01l17.21-53.354
			c6.72-1.858,15.285-6.958,21.803-14.833l8.614,68.203l11.186-0.025l-8.76-69.361c22.226,7.086,49.467-10.95,48.077-34.698
			c0.332-0.306,0.656-0.625,0.98-0.944c15.672-0.026,27.539-5.712,32.85-10.044C296.676,98.584,280.085,74.313,259.123,64.271z
			 M240.205,74.382c0,4.676-3.79,8.466-8.466,8.466s-8.466-3.79-8.466-8.466s3.79-8.466,8.466-8.466S240.205,69.706,240.205,74.382z
			 M234.45,136.08c-5.504,5.836-13.745,9.354-21.509,9.354c-0.001,0-0.003,0-0.004,0c-4.272,0-8.187-0.966-11.66-3.019
			c-0.233-0.139-0.472-0.267-0.701-0.415l-8.496-5.43l-2.272,3.619l-3.116,4.964c-3.48,5.527-8.312,9.631-12.696,12.264
			c-3.798,2.281-7.263,3.462-9.208,3.462l-3.053-0.129l-0.004,0.002l-2.694,1.595c-7.074,4.325-12.362,6.343-16.642,6.343
			c-3.631,0-8.979-1.345-18.194-11.838l-6.188-7.047l-7.429,5.725c-3.046,2.347-8.413,3.693-14.724,3.693
			c-2.709,0-5.598-0.26-8.557-0.771c-3.825-0.662-7.767-1.757-11.606-3.306c-5.098-2.056-10.004-4.908-14.194-8.601
			c-3.161-2.786-5.912-6.048-8.026-9.807c-2.488-4.424-4.1-9.529-4.449-15.355l-0.454-7.572l-7.415-1.604
			c-9.391-2.03-15.88-8.811-17.357-18.139c-1.172-7.4,1.165-17.397,11.239-23.261l5.845-3.402l-0.981-6.692
			c-0.96-6.545,0.578-12.207,4.569-16.826c4.499-5.207,11.905-8.571,18.869-8.571c1.302,0,2.551,0.121,3.711,0.359l6.981,1.433
			l3.633-6.131c5.524-9.323,13.489-14.67,21.853-14.67c3.96,0,7.84,1.168,11.532,3.472l6.963,4.346l5.62-5.982
			C129.957,11.413,136.806,10,141.438,10c7.624,0,12.894,3.542,13.807,5.018l4.433,7.171l7.817-3.157
			c4.777-1.929,9.116-2.907,12.894-2.907c5.146,0,12.754,1.55,19.384,14.948l3.566,7.208l7.805-1.936
			c2.875-0.714,5.616-1.075,8.146-1.075c6.673,0,12.139,2.535,16.247,7.535c4.896,5.959,6.067,13.15,5.717,15.07l-0.119,0.414
			c-15.02-2.754-28.583,0.771-33.43,13.795c-10.551,28.351,4.096,38.132,26.574,44.053c2.186,0.575,4.327,1.028,6.423,1.377
			l0.144,2.445C241.274,127.312,237.604,132.735,234.45,136.08z"/>
		<circle fill="#FFFFFF" cx="231.739" cy="74.382" r="8.466"/>
		<ellipse transform="matrix(0.6021 -0.7985 0.7985 0.6021 23.0095 181.0879)" cx="193.175" cy="67.46" rx="14.872" ry="6.049"/>
	</g>
</g>
<g id="Export">
	<g>
		<path fill="#FFFFFF" d="M234.45,136.08c-5.504,5.836-13.745,9.354-21.509,9.354c-0.001,0-0.003,0-0.004,0
			c-4.272,0-8.187-0.966-11.66-3.019c-0.233-0.139-0.472-0.267-0.701-0.415l-8.496-5.43l-2.272,3.619l-3.116,4.964
			c-3.48,5.527-8.312,9.631-12.696,12.264c-3.798,2.281-7.263,3.462-9.208,3.462l-3.053-0.129l-0.004,0.002l-2.694,1.595
			c-7.074,4.325-12.362,6.343-16.642,6.343c-3.631,0-8.979-1.345-18.194-11.838l-6.188-7.047l-7.429,5.725
			c-3.046,2.347-8.413,3.693-14.724,3.693c-2.709,0-5.598-0.26-8.557-0.771c-3.825-0.662-7.767-1.757-11.606-3.306
			c-5.098-2.056-10.004-4.908-14.194-8.601c-3.161-2.786-5.912-6.048-8.026-9.807c-2.488-4.424-4.1-9.529-4.449-15.355l-0.454-7.572
			l-7.415-1.604c-9.391-2.03-15.88-8.811-17.357-18.139c-1.172-7.4,1.165-17.397,11.239-23.261l5.845-3.402l-0.981-6.692
			c-0.96-6.545,0.578-12.207,4.569-16.826c4.499-5.207,11.905-8.571,18.869-8.571c1.302,0,2.551,0.121,3.711,0.359l6.981,1.433
			l3.633-6.131c5.524-9.323,13.489-14.67,21.853-14.67c3.96,0,7.84,1.168,11.532,3.472l6.963,4.346l5.62-5.982
			C129.957,11.413,136.806,10,141.438,10c7.624,0,12.894,3.542,13.807,5.018l4.433,7.171l7.817-3.157
			c4.777-1.929,9.116-2.907,12.894-2.907c5.146,0,12.754,1.55,19.384,14.948l3.566,7.208l7.805-1.936
			c2.875-0.714,5.616-1.075,8.146-1.075c6.673,0,12.139,2.535,16.247,7.535c4.896,5.959,6.067,13.15,5.717,15.07l-0.119,0.414
			c-15.02-2.754-28.583,0.771-33.43,13.795c-10.551,28.351,4.096,38.132,26.574,44.053c2.186,0.575,4.327,1.028,6.423,1.377
			l0.144,2.445C241.274,127.312,237.604,132.735,234.45,136.08z"/>
		<path fill="none" d="M240.701,117.514c-2.096-0.349-4.237-0.802-6.423-1.377c-22.479-5.921-37.125-15.702-26.574-44.053
			c4.847-13.024,18.41-16.549,33.43-13.795l0.119-0.414c0.351-1.92-0.82-9.111-5.717-15.07c-4.108-5-9.574-7.535-16.247-7.535
			c-2.529,0-5.271,0.361-8.146,1.075l-7.805,1.936l-3.566-7.208c-6.63-13.398-14.237-14.948-19.384-14.948
			c-3.777,0-8.116,0.978-12.894,2.907l-7.817,3.157l-4.433-7.171C154.332,13.542,149.062,10,141.438,10
			c-4.633,0-11.482,1.413-17.805,8.145l-5.62,5.982l-6.963-4.346c-3.692-2.304-7.571-3.472-11.532-3.472
			c-8.363,0-16.328,5.347-21.853,14.67l-3.633,6.131l-6.981-1.433c-1.16-0.238-2.409-0.359-3.711-0.359
			c-6.963,0-14.37,3.364-18.869,8.571c-3.991,4.62-5.529,10.281-4.569,16.826l0.981,6.692L35.04,70.81
			C24.965,76.673,22.628,86.67,23.801,94.07c1.478,9.328,7.966,16.108,17.357,18.139l7.415,1.604l0.454,7.572
			c0.349,5.826,1.96,10.932,4.449,15.355c2.114,3.759,4.865,7.021,8.026,9.807c4.19,3.692,9.096,6.545,14.194,8.601
			c3.839,1.549,7.781,2.644,11.606,3.306c2.958,0.511,5.847,0.771,8.557,0.771c6.311,0,11.677-1.347,14.724-3.693l7.429-5.725
			l6.188,7.047c9.215,10.493,14.563,11.838,18.194,11.838c4.279,0,9.567-2.018,16.642-6.343l2.694-1.595l0.004-0.002l3.053,0.129
			c1.945,0,5.41-1.181,9.208-3.462c4.385-2.633,9.216-6.736,12.696-12.264l3.116-4.964l2.272-3.619l8.496,5.43
			c0.229,0.148,0.468,0.276,0.701,0.415c3.474,2.053,7.388,3.019,11.66,3.019c0.001,0,0.003,0,0.004,0
			c7.764,0,16.005-3.519,21.509-9.354c3.154-3.345,6.824-8.768,6.395-16.121L240.701,117.514z M198.005,71.103
			c-4.945,6.559-11.115,10.244-13.783,8.232c-2.667-2.011-0.821-8.958,4.124-15.516c4.945-6.558,11.115-10.244,13.783-8.233
			C204.796,57.598,202.95,64.545,198.005,71.103z"/>
		<path d="M259.123,64.271c-2.547-1.22-5.135-2.293-7.728-3.21c-0.175-0.16-0.336-0.323-0.515-0.482
			c2.787-9.661-8.243-42.35-42.146-33.939c-9.287-18.77-24.047-25.333-44.984-16.879c-5.553-8.982-29.832-17.172-47.406,1.538
			C100.309,1.29,80.586,6.434,69.063,25.882C51.386,22.253,26.227,36.374,30.01,62.167c-9.709,5.651-14.97,14.611-16.207,23.93
			c-2.669,1.403-5.746,4.127-8.458,7.723c-4.945,6.559-6.791,13.505-4.124,15.516c2.668,2.012,8.838-1.674,13.783-8.232
			c0.069-0.092,0.131-0.184,0.199-0.275c3.308,10.006,11.443,18.477,23.841,21.156c0.643,10.726,4.648,19.609,10.588,26.668
			l-24.123,74.783l11.187,0.01l21.524-66.726c5.713,4.279,12.229,7.452,18.878,9.532l7.225,57.209l11.186-0.025l-6.905-54.676
			c11.217,1.396,21.69-0.382,28.082-5.308c13.929,15.86,24.909,18.811,40.527,11.305l-15.703,48.679l11.187,0.01l17.21-53.354
			c6.72-1.858,15.285-6.958,21.803-14.833l8.614,68.203l11.186-0.025l-8.76-69.361c22.226,7.086,49.467-10.95,48.077-34.698
			c0.332-0.306,0.656-0.625,0.98-0.944c15.672-0.026,27.539-5.712,32.85-10.044C296.676,98.584,280.085,74.313,259.123,64.271z
			 M240.205,74.382c0,4.676-3.79,8.466-8.466,8.466s-8.466-3.79-8.466-8.466s3.79-8.466,8.466-8.466S240.205,69.706,240.205,74.382z
			 M234.45,136.08c-5.504,5.836-13.745,9.354-21.509,9.354c-0.001,0-0.003,0-0.004,0c-4.272,0-8.187-0.966-11.66-3.019
			c-0.233-0.139-0.472-0.267-0.701-0.415l-8.496-5.43l-2.272,3.619l-3.116,4.964c-3.48,5.527-8.312,9.631-12.696,12.264
			c-3.798,2.281-7.263,3.462-9.208,3.462l-3.053-0.129l-0.004,0.002l-2.694,1.595c-7.074,4.325-12.362,6.343-16.642,6.343
			c-3.631,0-8.979-1.345-18.194-11.838l-6.188-7.047l-7.429,5.725c-3.046,2.347-8.413,3.693-14.724,3.693
			c-2.709,0-5.598-0.26-8.557-0.771c-3.825-0.662-7.767-1.757-11.606-3.306c-5.098-2.056-10.004-4.908-14.194-8.601
			c-3.161-2.786-5.912-6.048-8.026-9.807c-2.488-4.424-4.1-9.529-4.449-15.355l-0.454-7.572l-7.415-1.604
			c-9.391-2.03-15.88-8.811-17.357-18.139c-1.172-7.4,1.165-17.397,11.239-23.261l5.845-3.402l-0.981-6.692
			c-0.96-6.545,0.578-12.207,4.569-16.826c4.499-5.207,11.905-8.571,18.869-8.571c1.302,0,2.551,0.121,3.711,0.359l6.981,1.433
			l3.633-6.131c5.524-9.323,13.489-14.67,21.853-14.67c3.96,0,7.84,1.168,11.532,3.472l6.963,4.346l5.62-5.982
			C129.957,11.413,136.806,10,141.438,10c7.624,0,12.894,3.542,13.807,5.018l4.433,7.171l7.817-3.157
			c4.777-1.929,9.116-2.907,12.894-2.907c5.146,0,12.754,1.55,19.384,14.948l3.566,7.208l7.805-1.936
			c2.875-0.714,5.616-1.075,8.146-1.075c6.673,0,12.139,2.535,16.247,7.535c4.896,5.959,6.067,13.15,5.717,15.07l-0.119,0.414
			c-15.02-2.754-28.583,0.771-33.43,13.795c-10.551,28.351,4.096,38.132,26.574,44.053c2.186,0.575,4.327,1.028,6.423,1.377
			l0.144,2.445C241.274,127.312,237.604,132.735,234.45,136.08z"/>
		<circle fill="#FFFFFF" cx="231.739" cy="74.382" r="8.466"/>
		<ellipse transform="matrix(0.6021 -0.7985 0.7985 0.6021 23.0095 181.0879)" cx="193.175" cy="67.46" rx="14.872" ry="6.049"/>
	</g>
</g>
</svg>
