<?xml version="1.0" encoding="utf-8"?>
<!-- Generator: Adobe Illustrator 15.1.0, SVG Export Plug-In . SVG Version: 6.00 Build 0)  -->
<!DOCTYPE svg PUBLIC "-//W3C//DTD SVG 1.1//EN" "http://www.w3.org/Graphics/SVG/1.1/DTD/svg11.dtd">
<svg version="1.1" id="Layer_1" xmlns="http://www.w3.org/2000/svg" xmlns:xlink="http://www.w3.org/1999/xlink" x="0px" y="0px"
	 width="1000px" height="1000px" viewBox="-100 -200 1000 1000" enable-background="new -100 -200 1000 1000" xml:space="preserve">
<circle fill="#7377B9" stroke="#7377B9" stroke-miterlimit="10" cx="400" cy="300" r="500"/>
<path fill="#FFFFFF" d="M700.938,113.438c-22.5,9.375-45,16.875-71.25,18.75c26.25-15,45-39.375,54.375-67.5
	c-24.375,15-50.625,24.375-78.75,30c-20.625-24.375-54.375-39.375-88.125-39.375c-67.5,0-123.75,54.375-123.75,123.75
	c0,9.375,1.875,18.75,3.75,28.125c-103.125-5.625-193.125-54.375-255-129.375c-11.25,18.75-16.875,39.375-16.875,61.875
	c0,43.125,22.5,80.625,54.375,103.125c-20.625,0-39.375-5.625-56.25-15v1.875c0,60,43.125,108.75,99.375,120
	c-11.25,1.875-20.625,3.75-31.875,3.75c-7.5,0-15,0-22.5-1.875c15,48.75,61.875,84.375,114.375,86.25
	c-41.25,33.75-95.625,52.5-153.75,52.5c-9.375,0-20.625,0-30-1.875c54.375,35.625,120,56.25,189.375,56.25
	c226.875,0,350.625-187.5,350.625-350.625c0-5.625,0-11.25,0-15C663.438,160.312,684.062,137.812,700.938,113.438z"/>
</svg>
