<?xml version="1.0" encoding="utf-8"?>
<!-- Generator: Adobe Illustrator 15.1.0, SVG Export Plug-In . SVG Version: 6.00 Build 0)  -->
<!DOCTYPE svg PUBLIC "-//W3C//DTD SVG 1.1//EN" "http://www.w3.org/Graphics/SVG/1.1/DTD/svg11.dtd">
<svg version="1.1" id="Layer_1" xmlns="http://www.w3.org/2000/svg" xmlns:xlink="http://www.w3.org/1999/xlink" x="0px" y="0px"
	 width="1000px" height="1000px" viewBox="-100 -200 1000 1000" enable-background="new -100 -200 1000 1000" xml:space="preserve">
<circle fill="#7377B9" cx="400" cy="300" r="500"/>
<path fill="#FFFFFF" d="M444.062,453.125c0-4.688,0-7.812-1.562-12.5c-1.562-3.125-1.562-7.812-3.125-10.938
	s-3.125-6.25-4.688-10.938c-3.125-3.125-4.688-6.25-6.25-9.375s-4.688-4.688-7.812-9.375c-3.125-3.125-6.25-6.25-7.812-7.812
	s-4.688-4.688-9.375-7.812s-7.812-6.25-9.375-6.25s-4.688-3.125-9.375-6.25s-7.812-6.25-9.375-6.25c-3.125,0-7.812,0-15.625,0
	c-10.938,0-21.875,0-31.25,1.562c-10.938,1.562-21.875,3.125-32.812,7.812c-10.938,3.125-20.312,7.812-29.688,14.062
	s-15.625,12.5-20.312,21.875s-7.812,20.312-7.812,32.812c0,14.062,3.125,26.562,10.938,35.938c7.812,10.938,17.188,18.75,28.125,25
	s23.438,10.938,35.938,14.062s25,4.688,37.5,4.688s23.438-1.562,34.375-3.125c10.938-3.125,20.312-6.25,29.688-12.5
	c9.375-4.688,17.188-12.5,21.875-21.875S444.062,465.625,444.062,453.125z M408.125,193.75c0-12.5-1.562-25-4.688-39.062
	s-7.812-26.562-14.062-39.062s-14.062-23.438-25-31.25s-23.438-12.5-35.938-12.5c-18.75,0-32.812,6.25-43.75,20.312
	s-15.625,29.688-15.625,50c0,9.375,1.562,18.75,3.125,29.688s6.25,20.312,10.938,31.25s10.938,20.312,17.188,28.125
	s14.062,15.625,23.438,20.312s18.75,7.812,29.688,7.812c18.75,0,32.812-6.25,42.188-18.75
	C403.438,229.688,408.125,214.062,408.125,193.75z M369.062,51.562h131.25L459.688,75h-40.625c14.062,9.375,25,21.875,32.812,37.5
	s12.5,32.812,12.5,50c0,14.062-1.562,28.125-6.25,39.062s-10.938,20.312-17.188,28.125c-6.25,6.25-12.5,14.062-20.312,18.75
	c-6.25,6.25-12.5,12.5-17.188,18.75s-6.25,12.5-6.25,20.312c0,4.688,1.562,10.938,4.688,15.625s7.812,9.375,12.5,14.062
	s10.938,9.375,17.188,14.062s12.5,10.938,18.75,17.188s12.5,12.5,17.188,20.312s9.375,15.625,12.5,25s4.688,20.312,4.688,31.25
	c0,32.812-14.062,60.938-42.188,84.375c-29.688,26.562-71.875,39.062-126.562,39.062c-12.5,0-23.438-1.562-35.938-3.125
	s-25-4.688-35.938-9.375c-12.5-4.688-23.438-10.938-32.812-17.188s-17.188-15.625-23.438-26.562
	c-4.688-9.375-7.812-20.312-7.812-34.375c0-12.5,3.125-25,10.938-40.625c6.25-12.5,15.625-23.438,28.125-32.812
	s28.125-17.188,43.75-21.875s31.25-7.812,46.875-10.938c14.062-1.562,29.688-3.125,45.312-4.688
	c-12.5-17.188-18.75-31.25-18.75-45.312c0-3.125,0-4.688,0-7.812c0-1.562,1.562-4.688,1.562-6.25s1.562-3.125,3.125-6.25
	s1.562-4.688,1.562-6.25c-7.812,1.562-15.625,1.562-20.312,1.562c-29.688,0-54.688-9.375-76.562-29.688s-31.25-43.75-31.25-73.438
	c0-28.125,9.375-53.125,28.125-75c18.75-20.312,42.188-34.375,70.312-40.625C331.562,53.125,350.312,51.562,369.062,51.562z
	 M680,128.125v39.062h-76.562v76.562h-39.062v-76.562h-76.562v-39.062h76.562V51.562h39.062v76.562H680z"/>
</svg>
