<?xml version="1.0" encoding="utf-8"?>
<!-- Generator: Adobe Illustrator 15.1.0, SVG Export Plug-In . SVG Version: 6.00 Build 0)  -->
<!DOCTYPE svg PUBLIC "-//W3C//DTD SVG 1.1//EN" "http://www.w3.org/Graphics/SVG/1.1/DTD/svg11.dtd">
<svg version="1.1" id="Layer_1" xmlns="http://www.w3.org/2000/svg" xmlns:xlink="http://www.w3.org/1999/xlink" x="0px" y="0px"
	 width="103.701px" height="29.631px" viewBox="0 0 103.701 29.631" enable-background="new 0 0 103.701 29.631"
	 xml:space="preserve">
<g>
	<g>
		<path fill="#FFFFFF" d="M6.293,20.596v-7.23L0,3.416h4.066l4.043,6.797l3.961-6.797h3.996L9.75,13.389v7.207H6.293z"/>
		<path fill="#FFFFFF" d="M14.316,14.197c0-1.094,0.27-2.152,0.809-3.176s1.303-1.805,2.291-2.344s2.092-0.809,3.311-0.809
			c1.883,0,3.426,0.611,4.629,1.834s1.805,2.768,1.805,4.635c0,1.883-0.607,3.443-1.822,4.682s-2.744,1.857-4.588,1.857
			c-1.141,0-2.229-0.258-3.264-0.773s-1.822-1.271-2.361-2.268S14.316,15.627,14.316,14.197z M17.691,14.373
			c0,1.234,0.293,2.18,0.879,2.836s1.309,0.984,2.168,0.984s1.58-0.328,2.162-0.984s0.873-1.609,0.873-2.859
			c0-1.219-0.291-2.156-0.873-2.812s-1.303-0.984-2.162-0.984s-1.582,0.328-2.168,0.984S17.691,13.139,17.691,14.373z"/>
		<path fill="#FFFFFF" d="M37.93,20.596v-1.863c-0.453,0.664-1.049,1.188-1.787,1.57s-1.518,0.574-2.338,0.574
			c-0.836,0-1.586-0.184-2.25-0.551s-1.145-0.883-1.441-1.547s-0.445-1.582-0.445-2.754V8.15h3.293v5.719
			c0,1.75,0.061,2.822,0.182,3.217s0.342,0.707,0.662,0.938s0.727,0.346,1.219,0.346c0.562,0,1.066-0.154,1.512-0.463
			s0.75-0.691,0.914-1.148s0.246-1.576,0.246-3.357V8.15h3.293v12.445H37.93z"/>
		<path fill="#FFFFFF" d="M47.551,20.596h-3.293V8.15h3.059v1.77c0.523-0.836,0.994-1.387,1.412-1.652s0.893-0.398,1.424-0.398
			c0.75,0,1.473,0.207,2.168,0.621l-1.02,2.871c-0.555-0.359-1.07-0.539-1.547-0.539c-0.461,0-0.852,0.127-1.172,0.381
			s-0.572,0.713-0.756,1.377s-0.275,2.055-0.275,4.172V20.596z"/>
	</g>
	<g>
		<path fill="#FFFFFF" d="M50.685,20.596l6.598-17.18h2.449l7.031,17.18h-2.59l-2.004-5.203h-7.184l-1.887,5.203H50.685z
			 M55.642,13.541h5.824l-1.793-4.758c-0.547-1.445-0.953-2.633-1.219-3.562c-0.219,1.102-0.527,2.195-0.926,3.281L55.642,13.541z"
			/>
		<path fill="#FFFFFF" d="M67.83,25.365V8.15h1.922v1.617c0.453-0.633,0.965-1.107,1.535-1.424s1.262-0.475,2.074-0.475
			c1.062,0,2,0.273,2.812,0.82s1.426,1.318,1.84,2.314s0.621,2.088,0.621,3.275c0,1.273-0.229,2.42-0.686,3.439
			s-1.121,1.801-1.992,2.344s-1.787,0.814-2.748,0.814c-0.703,0-1.334-0.148-1.893-0.445s-1.018-0.672-1.377-1.125v6.059H67.83z
			 M69.74,14.443c0,1.602,0.324,2.785,0.973,3.551s1.434,1.148,2.355,1.148c0.938,0,1.74-0.396,2.408-1.189s1.002-2.021,1.002-3.686
			c0-1.586-0.326-2.773-0.979-3.562s-1.432-1.184-2.338-1.184c-0.898,0-1.693,0.42-2.385,1.26S69.74,12.842,69.74,14.443z"/>
		<path fill="#FFFFFF" d="M80.217,25.365V8.15h1.922v1.617c0.453-0.633,0.965-1.107,1.535-1.424s1.262-0.475,2.074-0.475
			c1.062,0,2,0.273,2.812,0.82s1.426,1.318,1.84,2.314s0.621,2.088,0.621,3.275c0,1.273-0.229,2.42-0.686,3.439
			s-1.121,1.801-1.992,2.344s-1.787,0.814-2.748,0.814c-0.703,0-1.334-0.148-1.893-0.445s-1.018-0.672-1.377-1.125v6.059H80.217z
			 M82.127,14.443c0,1.602,0.324,2.785,0.973,3.551s1.434,1.148,2.355,1.148c0.938,0,1.74-0.396,2.408-1.189
			s1.002-2.021,1.002-3.686c0-1.586-0.326-2.773-0.979-3.562s-1.432-1.184-2.338-1.184c-0.898,0-1.693,0.42-2.385,1.26
			S82.127,12.842,82.127,14.443z"/>
	</g>
	<g>
		<path fill="#FFFFFF" d="M93.701,9.676V4.918h-1.699V3.95h4.551v0.969h-1.695v4.758H93.701z"/>
		<path fill="#FFFFFF" d="M97.604,9.676V3.95h1.73l1.039,3.906L101.4,3.95h1.734v5.727h-1.074V5.168l-1.137,4.508h-1.113
			l-1.133-4.508v4.508H97.604z"/>
	</g>
</g>
</svg>
